<?xml version="1.0" encoding="UTF-8"?>
<svg id="Layer_2" data-name="Layer 2" xmlns="http://www.w3.org/2000/svg" viewBox="0 0 119.05 119.25">
  <defs>
    <style>
      .cls-1 {
        fill: #fff;
      }
    </style>
  </defs>
  <g id="Layer_1-2" data-name="Layer 1">
    <g>
      <g>
        <path class="cls-1" d="M70.05,47.58c4.95-1.44,13.7,1.05,18.08,3.68,21.31,12.8,14.87,42.91-1.95,56.82-17.28,14.28-49.55,15.86-62.13-5.29-.33-.55-1.27-1.69-.04-1.95.7-.15,8.67,3.92,10.46,4.51,18.39,5.97,39.83-.3,47.3-19.13,4.88-12.31,2.18-24.61-7.85-33.24-1.2-1.04-7.85-4.24-3.88-5.4Z"/>
        <path class="cls-1" d="M55.24,119.25c-2.66,0-5.29-.22-7.86-.66-7.38-1.28-17.49-5.02-23.76-15.55-.04-.07-.09-.14-.14-.22-.32-.5-.76-1.18-.51-1.8.14-.34.46-.57.94-.67.47-.09,1.57.35,6.2,2.51,1.86.87,3.79,1.77,4.52,2.01,16.84,5.46,38.92.72,46.68-18.84,4.9-12.34,2.09-24.25-7.71-32.68-.23-.2-.73-.51-1.31-.88-2.37-1.5-4.16-2.74-3.98-4.02.09-.62.63-1.07,1.6-1.36h0c5.32-1.55,14.31,1.22,18.48,3.73,10.35,6.22,13.13,15.59,13.64,22.36.95,12.63-5.29,26.81-15.53,35.28-8.32,6.88-19.97,10.79-31.26,10.79ZM24.05,101.33c-.11.03-.16.08-.16.08-.03.15.3.66.43.86.06.09.12.18.16.26,6.07,10.21,15.9,13.83,23.07,15.08,13.22,2.29,28.25-1.6,38.31-9.92,10-8.27,16.1-22.1,15.17-34.43-.49-6.53-3.17-15.58-13.16-21.57-4.11-2.47-12.82-5.04-17.69-3.62h0c-.63.18-.87.4-.89.54-.1.74,2.44,2.35,3.53,3.03.64.4,1.14.72,1.43.97,9.99,8.59,12.97,21.23,7.98,33.8-7.98,20.12-30.65,25.02-47.92,19.42-.79-.26-2.66-1.13-4.63-2.05-2.17-1.01-5.13-2.4-5.63-2.43Z"/>
      </g>
      <g>
        <path class="cls-1" d="M15.26,26.53c-4.19,13.63-3.26,28.67,6.24,39.9,10.78,12.75,33.91,16.46,45.95,3.49,2.08-2.24,6.28-11.84,7.24-3.74,1.49,12.61-8.49,23.12-19.97,26.43C19.64,102.74-16.83,61.44,9.51,31.01c.74-.85,4.86-5.34,5.75-4.48Z"/>
        <path class="cls-1" d="M43.76,94.67c-15.96,0-30.33-9.52-37.65-20.94-9.11-14.24-7.98-30.33,3.03-43.04.17-.19,4.08-4.69,5.77-4.76.34-.03.57.13.7.25l.22.21-.09.29c-4.61,14.99-2.37,29.37,6.14,39.43,5.75,6.8,15.3,11.17,24.91,11.39,8.17.19,15.38-2.62,20.3-7.92.47-.51,1.1-1.48,1.76-2.51,1.62-2.52,3.15-4.9,4.63-4.55.9.21,1.45,1.35,1.71,3.6,1.56,13.25-9.31,23.79-20.33,26.97-3.74,1.08-7.46,1.58-11.1,1.58ZM14.59,27.03c-.98.48-3.13,2.5-4.7,4.31C-.81,43.7-1.9,59.34,6.95,73.18c8.78,13.72,27.95,24.63,47.63,18.95,10.62-3.07,21.11-13.19,19.61-25.9-.29-2.47-.84-2.72-.94-2.74-.79-.18-2.52,2.51-3.56,4.12-.69,1.06-1.33,2.07-1.87,2.65-5.12,5.51-12.6,8.42-21.05,8.24-9.89-.23-19.72-4.73-25.65-11.75-8.61-10.18-10.98-24.63-6.53-39.73Z"/>
      </g>
      <g>
        <path class="cls-1" d="M113.64,70.41c-.79-14.36-9.04-26.89-23.09-31.05-11.97-3.54-25.36-1-34.35,7.85-1.11,1.09-4.17,5.77-5.23,5.76-3.71,0-.62-10.33.11-12.37,8.37-23.44,41.52-26.25,57.83-9.1,8.17,8.59,12.13,24.18,7.97,35.41-.52,1.41-1.41,3.94-3.23,3.5Z"/>
        <path class="cls-1" d="M114.07,70.97c-.17,0-.35-.02-.54-.07l-.36-.09-.02-.37c-.82-14.96-9.53-26.69-22.74-30.6-12.33-3.65-25.31-.69-33.86,7.72-.35.34-.94,1.12-1.57,1.94-1.9,2.47-3.12,3.97-4,3.97h0c-.69,0-1.26-.29-1.65-.84-1.98-2.81,1.26-12.1,1.29-12.2,3.59-10.06,12.12-17.21,23.39-19.59,12.87-2.73,26.72,1.32,35.27,10.31,8.63,9.07,12.18,24.85,8.07,35.93l-.04.1c-.5,1.36-1.4,3.78-3.24,3.78ZM79.89,37.31c3.57,0,7.21.52,10.8,1.58,13.5,4,22.44,15.88,23.43,31.07,1.04-.08,1.7-1.63,2.25-3.12l.04-.1c3.98-10.74.53-26.07-7.86-34.89-8.32-8.75-21.8-12.68-34.34-10.02-10.92,2.31-19.18,9.22-22.65,18.95-.99,2.76-2.71,9.44-1.41,11.28.2.29.46.42.83.42.53-.1,2.28-2.36,3.21-3.58.68-.89,1.27-1.65,1.67-2.04,6.32-6.22,14.98-9.55,24.04-9.55Z"/>
      </g>
      <g>
        <path class="cls-1" d="M76.69,6.58c-21.61.9-37.82,17.56-35.89,39.58.48,5.44,2.45,10.93,5.52,15.43,2.83,4.16,11.26,10.46-1.2,7.68-8.35-1.86-15.75-9.57-18.38-17.55C17.59,23.99,43.21-9.86,73.03,3.5c.5.22,4.72,2.19,3.65,3.08Z"/>
        <path class="cls-1" d="M49.79,70.46c-1.14,0-2.7-.23-4.78-.69-8.04-1.79-15.92-9.31-18.75-17.88-4.87-14.79,0-32.58,11.84-43.26C48.13-.43,60.94-2.46,73.24,3.04c1.18.53,3.95,1.89,4.11,3.07.04.32-.08.62-.34.85l-.13.11h-.17c-10.82.46-20.42,4.86-27.04,12.39-6.28,7.15-9.26,16.62-8.38,26.65.47,5.34,2.4,10.73,5.44,15.19.62.9,1.53,1.94,2.4,2.94,1.96,2.23,3.66,4.16,2.93,5.39-.32.55-1.05.82-2.28.82ZM59.56,1.01c-7.47,0-14.66,2.83-20.79,8.36-11.56,10.43-16.31,27.78-11.56,42.21,2.72,8.26,10.3,15.5,18.02,17.22,5.07,1.13,5.86.55,5.98.34.36-.61-1.55-2.78-2.82-4.22-.9-1.02-1.83-2.08-2.48-3.03-3.13-4.6-5.12-10.16-5.61-15.67-.91-10.31,2.16-20.04,8.62-27.4,6.73-7.66,16.46-12.17,27.41-12.71-.3-.41-1.86-1.4-3.5-2.14-4.41-1.97-8.89-2.95-13.27-2.95Z"/>
      </g>
    </g>
  </g>
</svg>